<?xml version="1.0" encoding="UTF-8" standalone="no"?>
<!-- Created with Inkscape (http://www.inkscape.org/) -->

<svg
   width="39.45219mm"
   height="38.140121mm"
   viewBox="0 0 39.45219 38.140121"
   version="1.1"
   id="svg1"
   inkscape:version="1.4.2 (f4327f4, 2025-05-13)"
   sodipodi:docname="рисунок.svg.2025_11_27_06_23_37.0.svg"
   inkscape:export-batch-path="ikonki"
   inkscape:export-batch-name="ikonki"
   xmlns:inkscape="http://www.inkscape.org/namespaces/inkscape"
   xmlns:sodipodi="http://sodipodi.sourceforge.net/DTD/sodipodi-0.dtd"
   xmlns="http://www.w3.org/2000/svg"
   xmlns:svg="http://www.w3.org/2000/svg">
  <sodipodi:namedview
     id="namedview1"
     pagecolor="#ffffff"
     bordercolor="#000000"
     borderopacity="0.25"
     inkscape:showpageshadow="2"
     inkscape:pageopacity="0.0"
     inkscape:pagecheckerboard="0"
     inkscape:deskcolor="#d1d1d1"
     inkscape:document-units="mm"
     inkscape:zoom="0.71713664"
     inkscape:cx="78.088326"
     inkscape:cy="561.25984"
     inkscape:window-width="1920"
     inkscape:window-height="1001"
     inkscape:window-x="-9"
     inkscape:window-y="-9"
     inkscape:window-maximized="1"
     inkscape:current-layer="layer1"
     inkscape:export-bgcolor="#ffffff00" />
  <defs
     id="defs1" />
  <g
     inkscape:groupmode="layer"
     id="layer8"
     inkscape:label="слой 7"
     transform="translate(-18.961645,-39.19819)">
    <g
       id="g66"
       transform="translate(16.155278,35.552695)"
       inkscape:label="brain">
      <path
         style="fill:none;fill-opacity:1;stroke:#1e293b;stroke-width:1;stroke-linecap:square;stroke-linejoin:miter;stroke-dasharray:8, 4;stroke-dashoffset:0;stroke-opacity:1"
         d="M 41.554089,41.081148 34.309632,34.991634"
         id="path27" />
      <path
         style="fill:none;fill-opacity:1;stroke:#1e293b;stroke-width:1;stroke-linecap:butt;stroke-dasharray:8, 4;stroke-dashoffset:2.90001;stroke-opacity:1"
         d="M 34.309632,34.991634 V 4.1454948"
         id="path32" />
      <path
         style="fill:none;fill-opacity:1;stroke:#1e293b;stroke-width:0.773605;stroke-linecap:butt;stroke-dasharray:6.18884, 3.09442;stroke-dashoffset:0;stroke-opacity:1"
         d="M 34.309632,34.991634 H 3.3063675"
         id="path30" />
      <path
         id="path1"
         style="fill:#ff9494;fill-opacity:1;stroke:#ff6e6e;stroke-width:4.24455;stroke-dasharray:none;stroke-opacity:1"
         d="m 80.732086,-243.18335 c -10e-7,34.6313 -0.268211,63.77193 -0.268211,63.77193 -25.138205,10.66796 -35.418218,-4.59091 -35.236056,-19.45509 -13.393298,1.82623 -22.908998,-11.1939 -14.163241,-27.5115 0,0 -9.248065,-6.42838 -9.476081,-17.4219 -0.174776,-8.42662 2.344965,-11.16944 11.808388,-15.91399 -3.035408,-4.17368 -10.74687,-13.59971 -5.912955,-26.54171 3.711982,-9.93821 17.523374,-9.72453 17.523374,-9.72453 0,0 4.981781,-11.30576 17.374638,-12.42633 17.837018,-1.61282 18.081933,10.6224 18.081933,10.6224 0,0 0.26821,19.96943 0.268211,54.60072 z"
         sodipodi:nodetypes="ccccscscscc"
         transform="matrix(0.24713099,0,0,0.22459965,2.6148365,77.78069)" />
      <path
         id="path1-1"
         style="fill:#ff9494;fill-opacity:1;stroke:#ff6e6e;stroke-width:4.24455;stroke-dasharray:none;stroke-opacity:1"
         d="m 80.915808,-242.65119 c 0,34.6313 0.268206,63.77193 0.268206,63.77193 25.138206,10.66796 35.418216,-4.59091 35.236056,-19.45509 13.3933,1.82623 22.909,-11.1939 14.16324,-27.5115 0,0 9.24807,-6.42838 9.47608,-17.4219 0.17477,-8.42662 -2.34496,-11.16944 -11.80839,-15.91399 3.03541,-4.17368 10.74687,-13.59971 5.91296,-26.54171 -3.71198,-9.93821 -17.52338,-9.72453 -17.52338,-9.72453 0,0 -4.98178,-11.30576 -17.374633,-12.42633 -17.837018,-1.61282 -18.081933,10.6224 -18.081933,10.6224 0,0 -0.268206,19.96943 -0.268206,54.60072 z"
         sodipodi:nodetypes="ccccscscscc"
         transform="matrix(0.24713099,0,0,0.22459965,2.6148365,77.78069)" />
      <path
         style="fill:#ff9494;fill-opacity:1;stroke:#ff6e6e;stroke-width:3.28361;stroke-linecap:round;stroke-dasharray:none;stroke-opacity:1"
         d="m 45.327991,-199.00085 c 0.41048,0.0597 12.902655,1.37576 17.165608,-4.00444"
         id="path2"
         sodipodi:nodetypes="cc"
         transform="matrix(0.24713099,0,0,0.22459965,2.6148365,77.78069)" />
      <path
         style="fill:#ff9494;fill-opacity:1;stroke:#ff6e6e;stroke-width:4.24455;stroke-linecap:round;stroke-dasharray:none;stroke-opacity:1"
         d="m 55.544346,-284.90291 c 0,0 14.599865,4.53464 13.647698,14.86356"
         id="path3"
         transform="matrix(0.24713099,0,0,0.22459965,2.6148365,77.78069)" />
      <path
         style="fill:#ff9494;fill-opacity:1;stroke:#ff6e6e;stroke-width:4.24455;stroke-linecap:round;stroke-dasharray:none;stroke-opacity:1"
         d="m 40.576468,-233.62564 c 0,0 -2.472799,-15.16189 13.58677,-15.56082"
         id="path4"
         transform="matrix(0.24713099,0,0,0.22459965,2.6148365,77.78069)" />
      <path
         style="fill:#ff9494;fill-opacity:1;stroke:#ff6e6e;stroke-width:4.24455;stroke-linecap:round;stroke-dasharray:none;stroke-opacity:1"
         d="m 130.35487,-226.07267 c 0,0 -18.50669,-0.42657 -21.99346,-6.82509"
         id="path2-2"
         transform="matrix(0.24713099,0,0,0.22459965,2.6148365,77.78069)" />
      <path
         style="fill:#ff9494;fill-opacity:1;stroke:#ff6e6e;stroke-width:4.24455;stroke-linecap:round;stroke-dasharray:none;stroke-opacity:1"
         d="m 119.49765,-270.14965 c 0,0 -15.2636,3.5444 -17.82655,16.27992"
         id="path3-4"
         transform="matrix(0.24713099,0,0,0.22459965,2.6148365,77.78069)" />
      <path
         style="fill:#ff9494;fill-opacity:1;stroke:#ff6e6e;stroke-width:4.24455;stroke-linecap:round;stroke-dasharray:none;stroke-opacity:1"
         d="m 105.96889,-199.08093 c 0,0 4.45101,-12.3466 -11.971999,-10.27679"
         id="path4-5"
         transform="matrix(0.24713099,0,0,0.22459965,2.6148365,77.78069)" />
      <rect
         style="fill:none;fill-opacity:1;stroke:#1e293b;stroke-width:1;stroke-linecap:round;stroke-dasharray:none;stroke-opacity:1"
         id="rect26"
         width="31.003265"
         height="30.846138"
         x="10.550825"
         y="10.235008" />
      <path
         style="fill:none;fill-opacity:1;stroke:#1e293b;stroke-width:1;stroke-linecap:round;stroke-dasharray:none;stroke-opacity:1"
         d="m 34.309632,4.1454948 7.244457,6.0895142"
         id="path26" />
      <path
         style="fill:none;fill-opacity:1;stroke:#1e293b;stroke-width:1;stroke-linecap:round;stroke-dasharray:none;stroke-opacity:1"
         d="m 10.550825,41.081148 c 0,0 -7.2444575,-6.089514 -7.2444575,-6.089514"
         id="path28" />
      <path
         style="fill:none;fill-opacity:1;stroke:#1e293b;stroke-width:1;stroke-linecap:round;stroke-dasharray:none;stroke-opacity:1"
         d="M 3.3063675,4.1454948 10.550825,10.235009"
         id="path29" />
      <path
         style="fill:none;fill-opacity:1;stroke:#1e293b;stroke-width:1;stroke-linecap:round;stroke-dasharray:none;stroke-opacity:1"
         d="M 34.309632,4.1454948 H 3.3063675 V 34.991634"
         id="path31"
         sodipodi:nodetypes="ccc" />
    </g>
  </g>
</svg>
