<?xml version="1.0" encoding="UTF-8" standalone="no"?>
<!-- Created with Inkscape (http://www.inkscape.org/) -->

<svg
   width="34.312939mm"
   height="34.392952mm"
   viewBox="0 0 34.312939 34.392952"
   version="1.1"
   id="svg1"
   inkscape:version="1.4.2 (f4327f4, 2025-05-13)"
   sodipodi:docname="рисунок.svg.2025_11_27_06_23_37.0.svg"
   inkscape:export-batch-path="ikonki"
   inkscape:export-batch-name="ikonki"
   xmlns:inkscape="http://www.inkscape.org/namespaces/inkscape"
   xmlns:sodipodi="http://sodipodi.sourceforge.net/DTD/sodipodi-0.dtd"
   xmlns="http://www.w3.org/2000/svg"
   xmlns:svg="http://www.w3.org/2000/svg">
  <sodipodi:namedview
     id="namedview1"
     pagecolor="#ffffff"
     bordercolor="#000000"
     borderopacity="0.25"
     inkscape:showpageshadow="2"
     inkscape:pageopacity="0.0"
     inkscape:pagecheckerboard="0"
     inkscape:deskcolor="#d1d1d1"
     inkscape:document-units="mm"
     inkscape:zoom="0.71713664"
     inkscape:cx="78.088326"
     inkscape:cy="561.25984"
     inkscape:window-width="1920"
     inkscape:window-height="1001"
     inkscape:window-x="-9"
     inkscape:window-y="-9"
     inkscape:window-maximized="1"
     inkscape:current-layer="layer1"
     inkscape:export-bgcolor="#ffffff00" />
  <defs
     id="defs1" />
  <g
     inkscape:groupmode="layer"
     id="layer2"
     inkscape:label="Слой 2"
     transform="translate(-69.126837,-40.661801)">
    <g
       id="g46"
       transform="matrix(0.48712305,0.48712305,-0.48614877,0.48614877,-19.571535,4.4220034)"
       style="stroke-width:1.45305">
      <g
         id="g51">
        <path
           d="m 172.59463,-69.60092 -0.94878,2.684074 a 18.692314,18.692314 0 0 1 10.58954,16.843933 18.692314,18.692314 0 0 1 -18.6924,18.692399 18.692314,18.692314 0 0 1 -18.6924,-18.692399 18.692314,18.692314 0 0 1 10.43864,-16.770552 l -0.96738,-2.677873 a 21.524086,21.524086 0 0 0 -12.30313,19.448425 21.524086,21.524086 0 0 0 21.52427,21.524268 21.524086,21.524086 0 0 0 21.52427,-21.524268 21.524086,21.524086 0 0 0 -12.47263,-19.528007 z"
           style="fill:#eb1515;fill-opacity:1;stroke:#eb1515;stroke-width:1.45305;stroke-linecap:round;stroke-dashoffset:32.8819;stroke-opacity:1"
           id="path44" />
        <path
           d="m 169.72711,-61.49082 -0.57723,1.634008 a 11.277042,11.277039 0 0 1 5.66994,9.784416 11.277042,11.277039 0 0 1 -11.27683,11.276831 11.277042,11.277039 0 0 1 -11.27735,-11.276831 11.277042,11.277039 0 0 1 5.56865,-9.725504 l -0.58911,-1.630909 a 12.985446,12.985442 0 0 0 -6.68796,11.356413 12.985446,12.985442 0 0 0 12.98577,12.985254 12.985446,12.985442 0 0 0 12.98525,-12.985254 12.985446,12.985442 0 0 0 -6.80113,-11.418424 z"
           style="fill:#eb1515;fill-opacity:1;stroke:#eb1515;stroke-width:2.90608;stroke-linecap:round;stroke-dashoffset:32.8819;stroke-opacity:1"
           id="path43" />
        <circle
           style="fill:#eb1515;fill-opacity:1;stroke:#eb1515;stroke-width:4.35915;stroke-linecap:round;stroke-linejoin:miter;stroke-dasharray:none;stroke-dashoffset:32.8819;stroke-opacity:1"
           id="circle33-2-1-2"
           cx="163.54272"
           cy="-49.507366"
           r="4.7121596" />
        <path
           style="fill:#1e293b;fill-opacity:1;stroke:#1e293b;stroke-width:2.9061;stroke-linecap:round;stroke-linejoin:miter;stroke-dasharray:none;stroke-dashoffset:32.8819;stroke-opacity:1"
           d="m 163.54272,-53.015229 v -23.135327 l -3.89881,-4.146258 v 7.794964 l 3.89881,4.477959 3.63061,-4.464138 v -7.753502 l -3.63061,4.090975"
           id="path45"
           sodipodi:nodetypes="cccccccc" />
        <path
           sodipodi:type="star"
           style="fill:#1e293b;fill-opacity:1;stroke:#1e293b;stroke-width:6.07079;stroke-linecap:round;stroke-linejoin:miter;stroke-dasharray:none;stroke-dashoffset:32.8819;stroke-opacity:1"
           id="path46"
           inkscape:flatsided="false"
           sodipodi:sides="3"
           sodipodi:cx="159.15083"
           sodipodi:cy="-54.916595"
           sodipodi:r1="6.2084918"
           sodipodi:r2="3.1126499"
           sodipodi:arg1="0.52359878"
           sodipodi:arg2="1.5707963"
           inkscape:rounded="0"
           inkscape:randomized="0"
           d="m 164.52754,-51.81235 -5.37671,0.0084 -5.37671,-0.0084 2.68108,-4.66057 2.69563,-4.652167 2.69564,4.652167 z"
           inkscape:transform-center-y="0.73998595"
           transform="matrix(0.23935085,-0.41456783,0.41456783,0.23935085,148.2165,28.377491)"
           inkscape:transform-center-x="0.0017392635" />
      </g>
    </g>
  </g>
</svg>
