<?xml version="1.0" encoding="UTF-8" standalone="no"?>
<!-- Created with Inkscape (http://www.inkscape.org/) -->

<svg
   width="44.731758mm"
   height="22.623526mm"
   viewBox="0 0 44.731758 22.623526"
   version="1.1"
   id="svg1"
   inkscape:version="1.4.2 (f4327f4, 2025-05-13)"
   sodipodi:docname="рисунок.svg.2025_11_27_06_23_37.0.svg"
   inkscape:export-batch-path="ikonki"
   inkscape:export-batch-name="ikonki"
   xmlns:inkscape="http://www.inkscape.org/namespaces/inkscape"
   xmlns:sodipodi="http://sodipodi.sourceforge.net/DTD/sodipodi-0.dtd"
   xmlns="http://www.w3.org/2000/svg"
   xmlns:svg="http://www.w3.org/2000/svg">
  <sodipodi:namedview
     id="namedview1"
     pagecolor="#ffffff"
     bordercolor="#000000"
     borderopacity="0.25"
     inkscape:showpageshadow="2"
     inkscape:pageopacity="0.0"
     inkscape:pagecheckerboard="0"
     inkscape:deskcolor="#d1d1d1"
     inkscape:document-units="mm"
     inkscape:zoom="0.71713664"
     inkscape:cx="78.088326"
     inkscape:cy="561.25984"
     inkscape:window-width="1920"
     inkscape:window-height="1001"
     inkscape:window-x="-9"
     inkscape:window-y="-9"
     inkscape:window-maximized="1"
     inkscape:current-layer="layer1"
     inkscape:export-bgcolor="#ffffff00" />
  <defs
     id="defs1" />
  <g
     inkscape:groupmode="layer"
     id="layer7"
     inkscape:label="слой 6"
     transform="translate(-33.321231,-96.895415)">
    <g
       id="g58"
       transform="translate(23.903104,32.970084)"
       inkscape:label="rainbow">
      <path
         d="m 31.783922,63.925331 a 22.365647,22.365647 0 0 0 -22.3657947,22.365496 22.365647,22.365647 0 0 0 0.00175,0.25803 h 3.8145467 a 18.55145,18.55145 0 0 1 -0.0017,-0.25803 18.55145,18.55145 0 0 1 18.551551,-18.551247 18.55145,18.55145 0 0 1 18.55155,18.551247 18.55145,18.55145 0 0 1 -0.0017,0.25803 h 3.814546 a 22.365647,22.365647 0 0 0 0.0012,-0.25803 22.365647,22.365647 0 0 0 -22.365573,-22.365496 z"
         style="fill:#eb1515;stroke-width:2;stroke-linecap:round;stroke-linejoin:round;stroke-dashoffset:32.8819"
         id="path52-0" />
      <path
         d="m 13.234175,86.548857 h 3.514709 a 15.037377,15.037377 0 0 1 -0.0023,-0.25803 15.037377,15.037377 0 0 1 15.037442,-15.037138 15.037377,15.037377 0 0 1 15.037441,15.037138 15.037377,15.037377 0 0 1 -0.0023,0.25803 h 3.514714 a 18.55145,18.55145 0 0 0 0.0017,-0.25803 18.55145,18.55145 0 0 0 -18.55155,-18.551247 18.55145,18.55145 0 0 0 -18.551551,18.551247 18.55145,18.55145 0 0 0 0.0018,0.25803 z"
         style="fill:#f58e0b;stroke-width:2;stroke-linecap:round;stroke-linejoin:round;stroke-dashoffset:32.8819"
         id="path53-3" />
      <path
         d="m 16.748884,86.548857 h 3.41276 a 11.625025,11.625025 0 0 1 -0.0029,-0.25803 11.625025,11.625025 0 0 1 11.624984,-11.624977 11.625025,11.625025 0 0 1 11.624978,11.624977 11.625025,11.625025 0 0 1 -0.0029,0.25803 h 3.412761 a 15.037377,15.037377 0 0 0 0.0023,-0.25803 15.037377,15.037377 0 0 0 -15.037424,-15.037138 15.037377,15.037377 0 0 0 -15.037442,15.037138 15.037377,15.037377 0 0 0 0.0023,0.25803 z"
         style="fill:#e4eb15;stroke-width:2;stroke-linecap:round;stroke-linejoin:round;stroke-dashoffset:32.8819"
         id="path54-8" />
      <path
         d="m 20.161644,86.548857 h 2.654605 a 8.9715025,8.9715025 0 0 1 -0.0041,-0.25803 8.9715025,8.9715025 0 0 1 8.971578,-8.97128 8.9715025,8.9715025 0 0 1 8.971578,8.97128 8.9715025,8.9715025 0 0 1 -0.0041,0.25803 h 2.654604 a 11.625025,11.625025 0 0 0 0.0029,-0.25803 A 11.625025,11.625025 0 0 0 31.783794,74.66585 11.625025,11.625025 0 0 0 20.15881,86.290827 a 11.625025,11.625025 0 0 0 0.0029,0.25803 z"
         style="fill:#52f50b;stroke-width:2;stroke-linecap:round;stroke-linejoin:round;stroke-dashoffset:32.8819"
         id="path55-0" />
      <path
         d="m 22.816249,86.548857 h 2.321687 a 6.6509589,6.6509589 0 0 1 -0.0052,-0.25803 6.6509589,6.6509589 0 0 1 6.651095,-6.65079 6.6509589,6.6509589 0 0 1 6.651095,6.65079 6.6509589,6.6509589 0 0 1 -0.0052,0.25803 h 2.321688 a 8.9715025,8.9715025 0 0 0 0.0041,-0.25803 8.9715025,8.9715025 0 0 0 -8.971578,-8.97128 8.9715025,8.9715025 0 0 0 -8.971579,8.97128 8.9715025,8.9715025 0 0 0 0.0041,0.25803 z"
         style="fill:#0bf5c9;stroke-width:2;stroke-linecap:round;stroke-linejoin:round;stroke-dashoffset:32.8819"
         id="path56-1" />
      <path
         d="m 25.137936,86.548857 h 2.195682 a 4.4579036,4.4579036 0 0 1 -0.0075,-0.25803 4.4579036,4.4579036 0 0 1 4.457823,-4.45782 4.4579036,4.4579036 0 0 1 4.457823,4.45782 4.4579036,4.4579036 0 0 1 -0.0075,0.25803 h 2.195676 a 6.6509589,6.6509589 0 0 0 0.0052,-0.25803 6.6509589,6.6509589 0 0 0 -6.651096,-6.65079 6.6509589,6.6509589 0 0 0 -6.651095,6.65079 6.6509589,6.6509589 0 0 0 0.0052,0.25803 z"
         style="fill:#0b7ef5;stroke-width:2;stroke-linecap:round;stroke-linejoin:round;stroke-dashoffset:32.8819"
         id="path57-2" />
      <path
         d="m 27.333618,86.548857 h 1.867874 a 2.5953769,2.5953769 0 0 1 -0.01292,-0.25803 2.5953769,2.5953769 0 0 1 2.595361,-2.59536 2.5953769,2.5953769 0 0 1 2.59536,2.59536 2.5953769,2.5953769 0 0 1 -0.01292,0.25803 h 1.86788 a 4.4579036,4.4579036 0 0 0 0.0075,-0.25803 4.4579036,4.4579036 0 0 0 -4.457823,-4.45782 4.4579036,4.4579036 0 0 0 -4.457823,4.45782 4.4579036,4.4579036 0 0 0 0.0075,0.25803 z"
         style="fill:#8e0bf5;stroke-width:2;stroke-linecap:round;stroke-linejoin:round;stroke-dashoffset:32.8819"
         id="path58-5" />
    </g>
  </g>
</svg>
